<mxfile host="Electron" modified="2024-03-23T16:25:44.548Z" agent="Mozilla/5.0 (X11; Linux x86_64) AppleWebKit/537.36 (KHTML, like Gecko) draw.io/23.1.5 Chrome/120.0.6099.109 Electron/28.1.0 Safari/537.36" etag="ZlL-3yJ7VfowLzH4LGkN" version="23.1.5" type="device">
  <diagram name="Page-1" id="WmKcBqQ57zAdK9sFzErc">
    <mxGraphModel dx="3980" dy="2317" grid="1" gridSize="12" guides="1" tooltips="1" connect="1" arrows="1" fold="1" page="1" pageScale="1" pageWidth="1600" pageHeight="900" math="0" shadow="0">
      <root>
        <mxCell id="0" />
        <mxCell id="1" parent="0" />
      </root>
    </mxGraphModel>
  </diagram>
</mxfile>
